<?xml version="1.0" standalone="no"?>
<!DOCTYPE svg PUBLIC "-//W3C//DTD SVG 20010904//EN"
 "http://www.w3.org/TR/2001/REC-SVG-20010904/DTD/svg10.dtd">
<svg version="1.0" xmlns="http://www.w3.org/2000/svg"
 width="53.000000pt" height="63.000000pt" viewBox="0 0 53.000000 63.000000"
 preserveAspectRatio="xMidYMid meet">

<g transform="translate(0.000000,63.000000) scale(0.100000,-0.100000)"
fill="#000000" stroke="none">
<path d="M130 615 c-112 -51 -157 -185 -96 -289 14 -25 39 -53 55 -62 26 -15
29 -23 34 -82 3 -38 1 -73 -6 -82 -16 -27 -1 -50 32 -50 16 0 49 -11 72 -25
124 -70 279 4 303 145 11 70 -26 156 -85 196 -24 16 -28 26 -31 79 -2 39 1 65
9 73 19 20 -2 52 -33 52 -13 0 -43 12 -65 27 -51 33 -136 41 -189 18z m171
-91 c41 -39 53 -90 34 -144 -19 -54 -20 -50 12 -50 37 0 89 -43 103 -86 47
-142 -130 -242 -229 -128 -25 28 -31 43 -31 82 0 26 7 57 15 69 14 20 13 21
-20 27 -108 21 -147 154 -67 228 36 34 49 38 105 34 36 -2 55 -10 78 -32z"/>
</g>
</svg>
